<svg width="20" height="20" viewBox="0 0 20 20" fill="none" xmlns="http://www.w3.org/2000/svg">
<g id="Icon/Advanced-Filter">
<path id="vector" opacity="0.1" d="M13.2783 1.08203H6.80571C5.31023 1.08203 3.876 1.67611 2.81854 2.73357C1.76107 3.79104 1.16699 5.22527 1.16699 6.72075V13.1933C1.16699 14.6888 1.76107 16.123 2.81854 17.1805C3.876 18.238 5.31023 18.832 6.80571 18.832H13.2783C14.7738 18.832 16.208 18.238 17.2654 17.1805C18.3229 16.123 18.917 14.6888 18.917 13.1933V6.72075C18.917 5.22527 18.3229 3.79104 17.2654 2.73357C16.208 1.67611 14.7738 1.08203 13.2783 1.08203Z" fill="#329EF0"/>
<path id="plus-squared" d="M13.267 2.20964C13.8612 2.20964 14.4496 2.32668 14.9986 2.55408C15.5476 2.78148 16.0465 3.11479 16.4667 3.53498C16.8868 3.95516 17.2201 4.45399 17.4475 5.00299C17.675 5.55199 17.792 6.1404 17.792 6.73464V13.268C17.792 13.8622 17.675 14.4506 17.4475 14.9996C17.2201 15.5486 16.8868 16.0474 16.4667 16.4676C16.0465 16.8878 15.5476 17.2211 14.9986 17.4485C14.4496 17.6759 13.8612 17.793 13.267 17.793H6.73366C5.53355 17.793 4.3826 17.3162 3.534 16.4676C2.6854 15.619 2.20866 14.4681 2.20866 13.268V6.73464C2.20866 5.53453 2.6854 4.38358 3.534 3.53498C4.3826 2.68638 5.53355 2.20964 6.73366 2.20964H13.267ZM6.10866 10.7763H9.22533V13.893C9.22533 14.0985 9.30698 14.2956 9.45232 14.441C9.59766 14.5863 9.79478 14.668 10.0003 14.668C10.2059 14.668 10.403 14.5863 10.5483 14.441C10.6937 14.2956 10.7753 14.0985 10.7753 13.893V10.7763H13.892C14.0975 10.7763 14.2947 10.6947 14.44 10.5493C14.5853 10.404 14.667 10.2068 14.667 10.0013C14.667 9.79576 14.5853 9.59864 14.44 9.45329C14.2947 9.30795 14.0975 9.2263 13.892 9.2263H10.7753V6.10964C10.7753 5.90409 10.6937 5.70697 10.5483 5.56163C10.403 5.41629 10.2059 5.33464 10.0003 5.33464C9.79478 5.33464 9.59766 5.41629 9.45232 5.56163C9.30698 5.70697 9.22533 5.90409 9.22533 6.10964V9.2263H6.10866C5.90312 9.2263 5.70599 9.30795 5.56065 9.45329C5.41531 9.59864 5.33366 9.79576 5.33366 10.0013C5.33366 10.2068 5.41531 10.404 5.56065 10.5493C5.70599 10.6947 5.90312 10.7763 6.10866 10.7763ZM13.267 1.04297H6.73366C5.22413 1.04297 3.77644 1.64262 2.70904 2.71002C1.64165 3.77741 1.04199 5.22511 1.04199 6.73464V13.268C1.04199 14.7775 1.64165 16.2252 2.70904 17.2926C3.77644 18.36 5.22413 18.9596 6.73366 18.9596H13.267C14.7765 18.9596 16.2242 18.36 17.2916 17.2926C18.359 16.2252 18.9587 14.7775 18.9587 13.268V6.73464C18.9587 5.22511 18.359 3.77741 17.2916 2.71002C16.2242 1.64262 14.7765 1.04297 13.267 1.04297Z" fill="#329EF0"/>
</g>
</svg>
