<svg viewBox="0 0 17 17" fill="none" xmlns="http://www.w3.org/2000/svg">
<g clip-path="url(#clip0_9372_70122)">
<path d="M15.7024 4.34761C14.9346 3.89456 14.1053 3.5644 13.2376 3.34943C13.4373 3.73335 13.5678 4.16334 13.6139 4.60101C13.7905 5.96005 13.875 7.41129 13.875 8.90858C13.875 10.4059 13.7905 11.8571 13.6139 13.2238C13.4757 14.3679 12.8153 15.3508 11.8862 15.919C11.9784 15.9267 12.0629 15.9343 12.155 15.9343C13.1609 15.9343 14.0976 15.3354 14.543 14.3986C15.641 12.0721 16.4472 9.63805 16.9463 7.15021C16.977 6.97362 17.0001 6.79703 17.0001 6.62808C17.0001 5.67596 16.501 4.80061 15.7024 4.34761Z" fill="#CCD6F4"/>
<path d="M12.8537 13.1318C13.0227 11.7881 13.1072 10.3675 13.1072 8.90867C13.1072 7.44975 13.0227 6.02927 12.8537 4.68554C12.8077 4.25555 12.6541 3.82556 12.4161 3.46466C12.347 3.35715 12.2702 3.24968 12.1857 3.14986C11.7711 2.66612 11.2336 2.34364 10.627 2.21308C9.28332 1.92897 7.7169 1.92897 6.37318 2.21308C5.7666 2.34364 5.2291 2.66612 4.81448 3.14986C4.73004 3.24968 4.65322 3.35715 4.58414 3.46466C4.34612 3.82556 4.19253 4.25555 4.14647 4.68554C3.97752 6.02927 3.89307 7.44975 3.89307 8.90867C3.89307 10.3675 3.97752 11.7881 4.14647 13.1395C4.30004 14.3603 5.19072 15.3509 6.36549 15.6042C6.38086 15.6042 6.39623 15.6119 6.41925 15.6119C6.46532 15.6196 6.50375 15.6273 6.54981 15.635C7.19477 15.7578 7.84746 15.8192 8.50011 15.8192C9.14512 15.8192 9.80545 15.7578 10.4504 15.635C10.4965 15.6273 10.5349 15.6196 10.581 15.6119C10.5963 15.6119 10.6194 15.6042 10.6347 15.6042C11.8095 15.3509 12.7002 14.3603 12.8537 13.1318ZM10.627 8.93168L9.98203 9.58437L10.1356 10.5134C10.2124 10.9972 9.72099 11.3734 9.29864 11.1431L8.50011 10.7054L7.70157 11.1431C7.27922 11.3734 6.78784 10.9972 6.8646 10.5134L7.01818 9.58437L6.37318 8.93167C6.02769 8.58614 6.21965 7.98724 6.68801 7.91811L7.58638 7.77992L7.98567 6.93531C8.19296 6.49763 8.80727 6.49763 9.01455 6.93531L9.41384 7.77992L10.3122 7.91812C10.7806 7.98725 10.9725 8.58614 10.627 8.93168Z" fill="#CCD6F4"/>
<path d="M4.84507 15.9343C4.92952 15.9343 5.00633 15.9267 5.10615 15.9113C4.17705 15.3508 3.5244 14.3756 3.3862 13.2315C3.20957 11.8571 3.12511 10.3982 3.12511 8.90859C3.12511 7.41129 3.20957 5.96006 3.3862 4.59333C3.43227 4.16334 3.56279 3.73335 3.77012 3.34943C2.89477 3.56441 2.07317 3.89457 1.29765 4.33993C0.499112 4.80062 1.91712e-09 5.67597 1.91712e-09 6.62808C-7.67649e-06 6.79703 0.0230506 6.97362 0.0537488 7.16558C0.55286 9.63805 1.35909 12.0721 2.45709 14.3986C2.90245 15.3354 3.83919 15.9343 4.84507 15.9343Z" fill="#CCD6F4"/>
</g>
<defs>
<clipPath id="clip0_9372_70122">
<rect width="17" height="17" fill="white"/>
</clipPath>
</defs>
</svg>
