<svg xmlns="http://www.w3.org/2000/svg" viewBox="0 0 76 76" fill="none">
  <g filter="url(#filter0_d_31992_69914)">
    <circle cx="38" cy="36" r="34" fill="white"/>
    <path d="M38 2C19.3 2 4 17.3 4 36C4 54.7 19.3 70 38 70C56.7 70 72 54.7 72 36C72 17.3 56.7 2 38 2ZM37.15 51.5833C36.3 52.4333 35.1667 53 34.0333 53H33.75C32.6167 53 31.4833 52.4333 30.6333 51.8667L20.8583 42.0917C19.2153 40.4486 19.2153 37.7847 20.8583 36.1417C22.5014 34.4986 25.1653 34.4986 26.8083 36.1417L33.1833 42.5167L48.6355 23.9258C50.1176 22.1427 52.763 21.8948 54.5506 23.3715L54.6186 23.4277C56.3987 24.8982 56.6611 27.5285 55.2067 29.3217L37.15 51.5833Z" fill="#17C653"/>
  </g>
  <defs>
    <filter id="filter0_d_31992_69914" x="0" y="0" filterUnits="userSpaceOnUse" color-interpolation-filters="sRGB">
      <feFlood flood-opacity="0" result="BackgroundImageFix"/>
      <feColorMatrix in="SourceAlpha" type="matrix" values="0 0 0 0 0 0 0 0 0 0 0 0 0 0 0 0 0 0 127 0" result="hardAlpha"/>
      <feOffset dy="2"/>
      <feGaussianBlur stdDeviation="2"/>
      <feComposite in2="hardAlpha" operator="out"/>
      <feColorMatrix type="matrix" values="0 0 0 0 0 0 0 0 0 0 0 0 0 0 0 0 0 0 0.15 0"/>
      <feBlend mode="normal" in2="BackgroundImageFix" result="effect1_dropShadow_31992_69914"/>
      <feBlend mode="normal" in="SourceGraphic" in2="effect1_dropShadow_31992_69914" result="shape"/>
    </filter>
  </defs>
</svg>