<svg xmlns="http://www.w3.org/2000/svg" viewBox="0 0 220 220" fill="none">
  <path d="M110 220C170.751 220 220 170.751 220 110C220 49.2487 170.751 0 110 0C49.2487 0 0 49.2487 0 110C0 170.751 49.2487 220 110 220Z" fill="#0096FD"/>
  <path d="M84.206 51.073L68.412 83.9056H115.279L69.6996 168.927H108.712L171.888 51.073H84.206Z" fill="white"/>
  <path d="M37.5537 91.3305L27.1245 112.961H57.9829L27.9829 168.927H53.6911L95.2791 91.3305H37.5537Z" fill="white"/>
  <path d="M135.15 91.3305L124.764 112.961H155.622L125.622 168.927H151.331L192.919 91.3305H135.15Z" fill="white"/>
  <path d="M150.3 91.3305H135.15L124.764 112.961H138.712L150.3 91.3305Z" fill="#0096FD"/>
</svg>